<?xml version="1.0"?>
<svg xmlns="http://www.w3.org/2000/svg" height="512px" viewBox="0 -13 511.99854 511" width="512px"><g><path d="m86.351562 122.238281c.128907.003907.253907.007813.378907.007813 5.335937 0 9.761719-4.210938 9.984375-9.585938.230468-5.519531-4.058594-10.179687-9.578125-10.40625l-.429688-.011718c-.070312-.003907-.136719-.003907-.203125-.003907-5.429687 0-9.855468 4.347657-9.964844 9.800781-.109374 5.515626 4.296876 10.078126 9.8125 10.199219zm0 0" data-original="#000000" class="active-path" data-old_color="#000000" fill="#458BC9"/><path d="m384.300781 147.964844-.492187-.21875c-5.035156-2.261719-10.953125-.011719-13.21875 5.023437-2.261719 5.039063-.015625 10.957031 5.023437 13.21875l.675781.304688c1.304688.570312 2.664063.839843 4 .839843 3.855469 0 7.527344-2.242187 9.167969-5.996093 2.214844-5.0625-.097656-10.957031-5.15625-13.171875zm0 0" data-original="#000000" class="active-path" data-old_color="#000000" fill="#458BC9"/><path d="m511.367188 76.699219c-.566407-4.128907-3.636719-7.472657-7.699219-8.390625-4.0625-.921875-8.273438.777344-10.5625 4.257812-24.535157 37.320313-84.851563 30.75-109.640625 26.191406-3.449219-.632812-6.976563-1.527343-10.710938-2.476562-13.585937-3.445312-28.988281-7.351562-44.722656.980469-8.558594 4.535156-26.589844 19.058593-9.253906 55.949219 3.652344 7.773437 2.773437 16.058593-2.609375 24.625-7.132813 11.355468-20.886719 20.867187-32.332031 24.933593l1.644531-102.511719c14.882812-9.683593 24.75-26.457031 24.75-45.5 0-29.917968-24.339844-54.257812-54.257813-54.257812-29.917968 0-54.257812 24.339844-54.257812 54.257812 0 19.042969 9.867187 35.816407 24.75 45.5l1.644531 102.496094c-11.433594-4.078125-25.160156-13.582031-32.28125-24.917968-5.382813-8.566407-6.261719-16.851563-2.609375-24.625 17.335938-36.890626-.695312-51.414063-9.25-55.949219-15.738281-8.332031-31.136719-4.425781-44.726562-.980469-3.734376.949219-7.261719 1.84375-10.707032 2.476562-5.433594 1-9.027344 6.210938-8.027344 11.644532s6.210938 9.023437 11.644532 8.027344c4.101562-.753907 8.125-1.773438 12.011718-2.761719 11.546876-2.929688 21.519532-5.457031 30.445313-.730469 7.703125 4.082031 7.875 14.097656.507813 29.769531-6.542969 13.929688-5.203126 29.472657 3.777343 43.769531 11.257813 17.917969 32.523438 31.066407 49.550781 35.105469l.28125 17.464844c-6.847656 2.15625-17.140624 4.972656-26.839843 5.992187-11.398438 1.195313-17.476563-.640624-18.441407-2.992187-1.304687-3.171875-4.144531-5.457031-7.523437-6.050781-3.378906-.589844-6.828125.589844-9.132813 3.132812-7.382812 8.140625-11.09375 9.011719-11.757812 9.101563-2.53125-1.695313-5.855469-12.660157-6.210938-23.464844-.097656-3.140625-1.660156-6.050781-4.226562-7.863281s-5.832031-2.3125-8.824219-1.355469c-8.453125 2.710937-19.988281 4.894531-26.925781-.125-7.289062-5.273437-7.46875-16.714844-7.46875-16.757813.019531-2.75-1.097656-5.382812-3.078125-7.285156-1.984375-1.898437-4.664063-2.90625-7.40625-2.769531-9.449219.460937-16.007813-1.234375-18.457031-4.773437-1.960938-2.835938-1.917969-7.394532-1.195313-11.523438 5.503907.789062 11.210938 1.191406 17.015625 1.191406 4.992188 0 10.054688-.296875 15.121094-.886718 5.484375-.636719 9.414062-5.601563 8.773438-11.089844-.640626-5.484375-5.605469-9.417969-11.089844-8.773438-12.066406 1.40625-24.007813.832032-34.539063-1.652344-.039062-.011718-.078125-.019531-.117187-.027343-.027344-.007813-.054688-.011719-.082032-.019531-31.960937-6.925782-42.222656-30.988282-45.234374-49.761719 9.3125 6.738281 20.476562 11.726562 33.410156 14.910156 5.359375 1.320313 10.777344-1.957031 12.097656-7.320313 1.320312-5.363281-1.957031-10.78125-7.320312-12.101562-18.324219-4.507812-31.910157-13.328125-40.378907-26.210938-2.289062-3.484374-6.5-5.183593-10.5625-4.261718-4.066406.921875-7.132812 4.265625-7.699219 8.394531-.113281.808594-2.65625 20.070313 3.328126 41.308594 7.253906 25.726562 23.667968 43.421875 47.761718 51.707031-1.5625 7.855469-1.898437 18.511719 4.195313 27.402344 5.429687 7.917968 14.398437 12.394531 26.738281 13.363281 1.664062 7.128906 5.488281 16.554687 14.269531 23.003906 8.601563 6.316407 19.703125 8.339844 33.105469 6.054688 1.863281 11.105469 6.527344 25.222656 18.148438 29.503906 2.316406.855469 4.601562 1.230469 6.824218 1.230469 7.214844 0 13.773438-3.925782 18.742188-8.03125 8.203125 5.253906 19.960937 5.914062 31.835937 4.53125-8.421875 11.53125-15.25 26.132812-14.25 42.550781 1.257813 20.699219 14.492188 39.53125 39.386719 56.175781l.089844 5.78125c-26.890625 16.988282-39.511719 34.183594-38.457032 52.230469 1.449219 24.753906 28.75 39.675781 41.007813 45.152344 3.035156 9.597656 12.023437 16.570312 22.609375 16.570312 10.589844 0 19.578125-6.976562 22.613281-16.570312 12.257813-5.480469 39.554688-20.402344 41.003907-45.152344 1.054687-18.046875-11.566407-35.242187-38.457032-52.230469l.09375-5.78125c24.894532-16.644531 38.128906-35.476562 39.386719-56.175781.996094-16.421875-5.832031-31.023437-14.253906-42.554687 11.894531 1.390624 23.675781.738281 31.890625-4.527344 4.96875 4.105468 11.527344 8.03125 18.742187 8.027344 2.222657 0 4.507813-.371094 6.828125-1.226563 11.621094-4.28125 16.28125-18.398437 18.144532-29.503906 13.402343 2.285156 24.503906.261719 33.105468-6.054688 8.78125-6.449219 12.605469-15.878906 14.273438-23.003906 12.335937-.96875 21.308594-5.445313 26.734375-13.363281 6.09375-8.890625 5.757812-19.546875 4.195312-27.402344 24.09375-8.289062 40.507813-25.980469 47.761719-51.707031 5.992188-21.242188 3.449219-40.5 3.335938-41.3125zm-255.394532-56.199219c18.890625 0 34.257813 15.367188 34.257813 34.261719 0 18.890625-15.367188 34.257812-34.257813 34.257812s-34.257812-15.367187-34.257812-34.257812c0-18.894531 15.367187-34.261719 34.257812-34.261719zm0 88.519531c3.199219 0 6.328125-.296875 9.378906-.828125l-3.949218 246.109375c-1.75 1.011719-3.5625 2.015625-5.429688 3.019531-1.867187-1-3.675781-2.007812-5.429687-3.019531l-3.945313-246.109375c3.046875.53125 6.175782.828125 9.375.828125zm-44.671875 199.148438c-.945312-15.101563 8.75-28.941407 17.882813-38.492188l1.132812 70.585938c-11.945312-10.292969-18.324218-21.027344-19.015625-32.09375zm1.019531 114.175781c-.304687-5.199219 2.421876-14.472656 18.875-27.042969l.804688 50.101563c-9.289062-5.578125-19.136719-13.808594-19.679688-23.058594zm47.363282 39.179688c0 2.046874-1.664063 3.710937-3.710938 3.710937s-3.710937-1.664063-3.710937-3.71875c0-.054687 0-.109375-.003907-.160156l-1.261718-78.789063c1.597656-.890625 3.25-1.792968 4.976562-2.703125 1.726563.914063 3.378906 1.8125 4.976563 2.703125l-1.261719 78.796875c-.003906.054688-.003906.109375-.003906.160157zm39.941406-39.199219c-.523438 9.195312-10.378906 17.433593-19.679688 23.039062l.804688-50.0625c16.4375 12.558594 19.171875 21.824219 18.875 27.023438zm1.023438-114.210938c-.671876 11.085938-7.054688 21.835938-19.015626 32.148438l1.128907-70.484375c9.117187 9.578125 18.796875 23.40625 17.886719 38.335937zm188.136718-195.53125c-6.203125 22.007813-20.710937 35.625-43.125 40.476563-.0625.011718-.121094.027344-.183594.042968-10.527343 2.484376-22.472656 3.058594-34.535156 1.652344-5.480468-.640625-10.453125 3.289063-11.089844 8.773438-.640624 5.488281 3.289063 10.453125 8.773438 11.089844 10.953125 1.277343 21.890625 1.15625 32.136719-.3125.722656 4.132812.769531 8.695312-1.195313 11.53125-2.449218 3.539062-9.003906 5.238281-18.457031 4.773437-2.742187-.128906-5.421875.867187-7.40625 2.769531s-3.097656 4.539063-3.078125 7.285156c0 .109376-.25 11.457032-7.390625 16.703126-6.929687 5.085937-18.511719 2.90625-27.003906.179687-2.984375-.957031-6.25-.449219-8.8125 1.355469-2.566407 1.804687-4.132813 4.714844-4.238281 7.851562-.359376 10.816406-3.679688 21.78125-6.210938 23.476563-.667969-.089844-4.375-.960938-11.757812-9.101563-2.308594-2.542968-5.75-3.726562-9.132813-3.132812s-6.222656 2.878906-7.523437 6.050781c-.96875 2.351563-7.046876 4.183594-18.441407 2.992187-9.726562-1.019531-20.042969-3.851562-26.890625-6.007812l.28125-17.4375c17.035156-4.023438 38.332032-17.179688 49.601563-35.117188 8.980469-14.292968 10.320312-29.839843 3.773437-43.769531-7.363281-15.671875-7.191406-25.6875.511719-29.769531 8.925781-4.726562 18.898437-2.199219 30.445313.730469 3.886718.988281 7.90625 2.007812 12.011718 2.761719 23.800782 4.371093 76.0625 10.046874 110.96875-15.085938-.480468 2.972656-1.140625 6.082031-2.03125 9.238281zm0 0" data-original="#000000" class="active-path" data-old_color="#000000" fill="#458BC9"/></g> </svg>
