<svg xmlns="http://www.w3.org/2000/svg" xmlns:xlink="http://www.w3.org/1999/xlink" viewBox="0 0 115.35 84.52"><defs><style>.cls-1{isolation:isolate;}.cls-2{opacity:0.24;mix-blend-mode:color-burn;}.cls-10,.cls-11,.cls-13,.cls-3,.cls-4,.cls-5,.cls-6,.cls-8,.cls-9{mix-blend-mode:soft-light;}.cls-3{fill:url(#linear-gradient);}.cls-4{fill:url(#linear-gradient-2);}.cls-5{fill:url(#linear-gradient-3);}.cls-7{fill:url(#linear-gradient-4);}.cls-8{fill:url(#linear-gradient-5);}.cls-9{fill:url(#linear-gradient-6);}.cls-10{fill:url(#linear-gradient-7);}.cls-11{fill:url(#linear-gradient-8);}.cls-12{fill:url(#linear-gradient-9);}.cls-13{fill:url(#linear-gradient-10);}</style><linearGradient id="linear-gradient" x1="64.72" y1="56.15" x2="87.49" y2="56.15" gradientUnits="userSpaceOnUse"><stop offset="0" stop-color="#fbfbfb"/><stop offset="0.22" stop-color="#f5f5f5"/><stop offset="0.52" stop-color="#e4e3e4"/><stop offset="0.86" stop-color="#c8c7c8"/><stop offset="1" stop-color="#bab9ba"/></linearGradient><linearGradient id="linear-gradient-2" x1="69.41" y1="11.4" x2="92.19" y2="11.4" xlink:href="#linear-gradient"/><linearGradient id="linear-gradient-3" x1="80.37" y1="36.12" x2="103.15" y2="36.12" xlink:href="#linear-gradient"/><linearGradient id="linear-gradient-4" x1="45.71" y1="26.71" x2="71.45" y2="26.71" xlink:href="#linear-gradient"/><linearGradient id="linear-gradient-5" x1="99.08" y1="18.5" x2="115.35" y2="18.5" xlink:href="#linear-gradient"/><linearGradient id="linear-gradient-6" x1="19.04" y1="73.14" x2="41.8" y2="73.14" xlink:href="#linear-gradient"/><linearGradient id="linear-gradient-7" x1="20.6" y1="27.78" x2="43.36" y2="27.78" xlink:href="#linear-gradient"/><linearGradient id="linear-gradient-8" x1="34.66" y1="53.13" x2="57.46" y2="53.13" xlink:href="#linear-gradient"/><linearGradient id="linear-gradient-9" x1="0" y1="43.73" x2="25.76" y2="43.73" xlink:href="#linear-gradient"/><linearGradient id="linear-gradient-10" x1="5.17" y1="13.31" x2="21.45" y2="13.31" xlink:href="#linear-gradient"/></defs><title>Asset 4</title><g class="cls-1"><g id="Layer_2" data-name="Layer 2"><g id="Layer_1-2" data-name="Layer 1"><g class="cls-2"><polygon class="cls-3" points="80.65 44.77 80.65 51.62 87.49 51.62 87.49 60.69 80.65 60.69 80.65 67.53 71.56 67.53 71.56 60.69 64.72 60.69 64.72 51.62 71.56 51.62 71.56 44.77 80.65 44.77"/><polygon class="cls-4" points="85.34 0 85.34 6.84 92.19 6.84 92.19 15.93 85.34 15.93 85.34 22.8 76.26 22.8 76.26 15.93 69.41 15.93 69.41 6.84 76.26 6.84 76.26 0 85.34 0"/><polygon class="cls-5" points="96.29 24.72 96.29 31.57 103.15 31.57 103.15 40.66 96.29 40.66 96.29 47.52 87.22 47.52 87.22 40.66 80.37 40.66 80.37 31.57 87.22 31.57 87.22 24.72 96.29 24.72"/><g class="cls-6"><path class="cls-7" d="M70,22.2v9.05H63.11V38.1H54.05V31.25H47.2v-9h6.85V15.34h9.06V22.2H70m1.49-1.53H64.61V13.81h-12v6.86H45.71V32.74h6.85V39.6h12V32.74h6.84V20.67Z"/></g><rect class="cls-8" x="99.08" y="10.37" width="16.26" height="16.26"/><polygon class="cls-9" points="34.95 61.76 34.95 68.63 41.8 68.63 41.8 77.68 34.95 77.68 34.95 84.52 25.89 84.52 25.89 77.68 19.04 77.68 19.04 68.63 25.89 68.63 25.89 61.76 34.95 61.76"/><polygon class="cls-10" points="36.51 16.39 36.51 23.26 43.36 23.26 43.36 32.32 36.51 32.32 36.51 39.17 27.41 39.17 27.41 32.32 20.6 32.32 20.6 23.26 27.41 23.26 27.41 16.39 36.51 16.39"/><polygon class="cls-11" points="50.6 41.74 50.6 48.6 57.46 48.6 57.46 57.67 50.6 57.67 50.6 64.51 41.51 64.51 41.51 57.67 34.66 57.67 34.66 48.6 41.51 48.6 41.51 41.74 50.6 41.74"/><g class="cls-6"><path class="cls-12" d="M24.26,39.24v9H17.42v6.86H8.35V48.26H1.49v-9H8.35V32.37h9.07v6.87h6.84m1.5-1.56H18.93V30.83H6.85v6.85H0V49.77H6.85v6.86H18.93V49.77h6.83V37.68Z"/></g><rect class="cls-13" x="5.17" y="5.17" width="16.28" height="16.28"/></g></g></g></g></svg>